<?xml version="1.0" encoding="UTF-8" standalone="no"?>
<svg
   data-name="Layer 1"
   width="787.16931"
   height="594.9198"
   viewBox="0 0 787.1693 594.9198"
   version="1.1"
   id="svg53"
   sodipodi:docname="undraw_javascript_frameworks.svg"
   inkscape:version="1.3.2 (091e20ef0f, 2023-11-25, custom)"
   xmlns:inkscape="http://www.inkscape.org/namespaces/inkscape"
   xmlns:sodipodi="http://sodipodi.sourceforge.net/DTD/sodipodi-0.dtd"
   xmlns:xlink="http://www.w3.org/1999/xlink"
   xmlns="http://www.w3.org/2000/svg"
   xmlns:svg="http://www.w3.org/2000/svg">
  <sodipodi:namedview
     id="namedview53"
     pagecolor="#ffffff"
     bordercolor="#000000"
     borderopacity="0.25"
     inkscape:showpageshadow="2"
     inkscape:pageopacity="0.0"
     inkscape:pagecheckerboard="0"
     inkscape:deskcolor="#d1d1d1"
     inkscape:zoom="1.1205479"
     inkscape:cx="389.54158"
     inkscape:cy="287.35942"
     inkscape:window-width="1920"
     inkscape:window-height="1022"
     inkscape:window-x="0"
     inkscape:window-y="0"
     inkscape:window-maximized="1"
     inkscape:current-layer="svg53" />
  <defs
     id="defs3">
    <linearGradient
       id="a3c4672e-2259-4d6c-8c24-5949363a8af1-479"
       x1="278.97311"
       y1="470.29514"
       x2="278.97311"
       y2="199.61685"
       gradientUnits="userSpaceOnUse">
      <stop
         offset="0"
         stop-color="gray"
         stop-opacity="0.25"
         id="stop1" />
      <stop
         offset="0.53514"
         stop-color="gray"
         stop-opacity="0.12"
         id="stop2" />
      <stop
         offset="1"
         stop-color="gray"
         stop-opacity="0.1"
         id="stop3" />
    </linearGradient>
    <linearGradient
       id="acf699b8-10e6-407b-86e3-0f7f8fa4bdb6-480"
       x1="191.7952"
       y1="163.03871"
       x2="191.7952"
       y2="0"
       xlink:href="#a3c4672e-2259-4d6c-8c24-5949363a8af1-479" />
    <linearGradient
       id="b28a1e8f-be05-408d-a6f5-6fd2e5b0337f-481"
       x1="563.67303"
       y1="215.46739"
       x2="563.67303"
       y2="0.87558001"
       xlink:href="#a3c4672e-2259-4d6c-8c24-5949363a8af1-479" />
    <linearGradient
       id="f1fc4b36-2829-4464-83b0-fd2af5b19fd6-482"
       x1="639.8775"
       y1="470.29514"
       x2="639.8775"
       y2="255.70335"
       xlink:href="#a3c4672e-2259-4d6c-8c24-5949363a8af1-479"
       gradientTransform="matrix(1.1917069,0,0,1.1917069,-167.58451,-86.826175)" />
    <linearGradient
       id="bb60ebe1-81e2-422a-a970-aa43062904da-483"
       x1="453.7012"
       y1="780.90234"
       x2="453.7012"
       y2="650.04346"
       gradientTransform="matrix(-1,0,0,1,1039.5847,-85)"
       xlink:href="#a3c4672e-2259-4d6c-8c24-5949363a8af1-479" />
    <linearGradient
       id="a1b2f907-b002-48c8-973d-a12b277f13d1-484"
       x1="488.73431"
       y1="780.90234"
       x2="488.73431"
       y2="650.04346"
       gradientTransform="matrix(-1,0,0,1,1039.5847,-85)"
       xlink:href="#a3c4672e-2259-4d6c-8c24-5949363a8af1-479" />
    <linearGradient
       id="a8136d5f-4c26-4562-977f-ea29024932d1-485"
       x1="235.31857"
       y1="696.90234"
       x2="235.31857"
       y2="566.04346"
       xlink:href="#a3c4672e-2259-4d6c-8c24-5949363a8af1-479" />
    <linearGradient
       id="eaaf4b84-3353-429f-a894-84d4b3cd89b7-486"
       x1="270.35168"
       y1="696.90234"
       x2="270.35168"
       y2="566.04346"
       xlink:href="#a3c4672e-2259-4d6c-8c24-5949363a8af1-479" />
    <linearGradient
       id="fa1ca12c-a5d3-4b88-b665-ae3e1db189da-487"
       x1="319.81015"
       y1="696.88013"
       x2="319.81015"
       y2="561.94403"
       xlink:href="#a3c4672e-2259-4d6c-8c24-5949363a8af1-479" />
    <linearGradient
       inkscape:collect="always"
       xlink:href="#a3c4672e-2259-4d6c-8c24-5949363a8af1-479"
       id="linearGradient53"
       gradientUnits="userSpaceOnUse"
       x1="278.97311"
       y1="470.29514"
       x2="278.97311"
       y2="199.61685"
       gradientTransform="matrix(1.2218506,0,0,1.2218506,-135.29275,-167.31715)" />
  </defs>
  <title
     id="title3">JavaScript frameworks</title>
  <path
     d="m 762.66089,454.70696 c 0,45.23881 -26.89446,61.0365 -60.06793,61.0365 -0.77234,0 -1.54052,-0.008 -2.3045,-0.0292 -1.53635,-0.0334 -3.06018,-0.10019 -4.56313,-0.20874 -29.94213,-2.11666 -53.20445,-18.72843 -53.20445,-60.79853 0,-43.53546 55.62587,-98.47249 59.8216,-102.55134 l 0.008,-0.004 c 0.15865,-0.15862 0.24212,-0.23794 0.24212,-0.23794 0,0 60.06793,57.55047 60.06793,102.79346 z"
     fill="#3f3d56"
     id="path3" />
  <path
     d="m 700.40116,508.82153 21.97231,-30.69773 -22.02658,34.06687 -0.0584,3.52358 c -1.53635,-0.0334 -3.06018,-0.10019 -4.56313,-0.20874 l 2.36714,-45.25968 -0.0167,-0.3507 0.0418,-0.0668 0.22126,-4.27508 -22.08083,-34.15458 22.14764,30.94826 0.0543,0.906 1.791,-34.19632 -18.90376,-35.2901 19.13337,29.28247 1.862,-70.89335 0.008,-0.24212 v 0.23794 l -0.309,55.90561 18.81611,-22.16436 -18.89543,26.978 -0.49679,30.61846 17.572,-29.38269 -17.64707,33.89146 -0.27553,17.02093 25.5084,-40.90115 -25.60441,46.842 z"
     fill="#f2f2f2"
     id="path4" />
  <path
     d="m 138.58465,503.3388 c 0,27.107 -16.11508,36.57288 -35.99252,36.57288 -0.46278,0 -0.92308,-0.005 -1.38085,-0.0175 -0.92058,-0.02 -1.83365,-0.06 -2.73421,-0.12508 -17.94123,-1.26829 -31.88,-11.222 -31.88,-36.43029 0,-26.08631 33.33085,-59.00441 35.84492,-61.44845 l 0.005,-0.003 c 0.0951,-0.095 0.14508,-0.14258 0.14508,-0.14258 0,0 35.99258,34.48407 35.99258,61.59353 z"
     fill="#3f3d56"
     id="path5" />
  <path
     d="m 101.27881,535.76408 13.16574,-18.394 -13.19826,20.41276 -0.035,2.11132 c -0.92058,-0.02 -1.83365,-0.06 -2.73421,-0.12508 l 1.41838,-27.11946 -0.01,-0.21013 0.025,-0.04 0.13258,-2.56162 -13.23077,-20.4653 13.2708,18.5441 0.0325,0.54285 1.07317,-20.49033 -11.32711,-21.14573 11.46466,17.546 1.1157,-42.47908 0.005,-0.14508 v 0.14258 l -0.18513,33.49847 11.27456,-13.28082 -11.32209,16.16511 -0.29767,18.34649 10.52908,-17.606 -10.57409,20.30767 -0.1651,10.19889 15.28459,-24.50789 -15.34209,28.06759 z"
     fill="#f2f2f2"
     id="path6" />
  <g
     id="g1"
     transform="translate(-4.1344172,-76.584824)">
    <rect
       x="32.012787"
       y="76.584824"
       width="347.11588"
       height="330.72842"
       fill="url(#a3c4672e-2259-4d6c-8c24-5949363a8af1-479)"
       id="rect6"
       style="fill:url(#linearGradient53);stroke-width:1.22185" />
    <rect
       x="39.461628"
       y="84.033661"
       width="332.21823"
       height="315.83075"
       fill="#ffffff"
       id="rect7"
       style="stroke-width:1.22185" />
    <rect
       x="51.379761"
       y="95.951813"
       width="308.38193"
       height="291.99448"
       fill="#6c63ff"
       id="rect8"
       style="stroke-width:1.22185" />
    <path
       d="M 262.01488,160.8106 H 299.6443 L 205.57073,323.0875 111.49717,160.8106 h 71.96628 l 22.10728,37.62942 21.63692,-37.62942 z"
       fill="#41b883"
       id="path8"
       style="stroke-width:1.22185" />
    <path
       d="M 111.49717,160.8106 205.57073,323.0875 299.6443,160.8106 H 262.01488 L 205.57073,258.17673 148.65622,160.8106 Z"
       fill="#41b883"
       id="path9"
       style="stroke-width:1.22185" />
    <path
       d="m 148.65622,160.8106 56.91451,97.8365 56.44415,-97.8365 h -34.80723 l -21.63692,37.62942 -22.10728,-37.62942 z"
       fill="#35495e"
       id="path10"
       style="stroke-width:1.22185" />
  </g>
  <g
     id="g2"
     transform="translate(2.2903137,-129.09122)">
    <rect
       x="425.68573"
       y="217.89726"
       width="338.55234"
       height="255.73051"
       fill="url(#f1fc4b36-2829-4464-83b0-fd2af5b19fd6-482)"
       id="rect20"
       style="fill:url(#f1fc4b36-2829-4464-83b0-fd2af5b19fd6-482);stroke-width:1.19171" />
    <rect
       x="432.95084"
       y="225.16234"
       width="324.02222"
       height="241.20039"
       fill="#ffffff"
       id="rect21"
       style="stroke-width:1.19171" />
    <rect
       x="444.57495"
       y="236.78645"
       width="300.77396"
       height="217.95216"
       fill="#6c63ff"
       id="rect22"
       style="stroke-width:1.19171" />
    <path
       d="m 504.27862,345.27373 c -0.0436,13.78823 13.37965,26.70193 34.58263,34.02442 -4.30613,21.32517 -0.88094,38.53574 10.71831,45.2739 11.9223,6.92646 29.73181,2.21438 46.66805,-12.49638 16.41859,14.21984 33.03942,19.84796 44.67103,13.16382 11.95512,-6.87041 15.64191,-25.22459 11.35577,-47.24353 22.13161,-7.23938 34.533,-18.17564 34.57714,-32.14541 0.0425,-13.46818 -13.40892,-25.16208 -34.32646,-32.43707 4.76175,-22.89954 0.84154,-39.69405 -11.23832,-46.7107 -11.64583,-6.76486 -28.49654,-0.954 -45.24764,13.53132 -17.33099,-15.48567 -33.98177,-20.24921 -46.09283,-13.28959 -11.67762,6.7105 -15.05891,24.21248 -10.87522,45.95914 -20.53242,7.08588 -34.75008,18.95643 -34.79246,32.37008 z"
       fill="#ffffff"
       id="path22"
       style="stroke-width:1.19171" />
    <path
       d="m 648.06782,320.55805 q -2.58589,-0.89616 -5.21446,-1.66124 0.44175,-1.77095 0.8178,-3.55734 c 4.01156,-19.16689 1.47711,-34.6259 -7.32871,-39.73996 -8.44266,-4.9048 -22.29217,0.13768 -36.30178,12.25144 q -2.07071,1.79461 -4.04879,3.69209 -1.31621,-1.26963 -2.67878,-2.48987 c -14.60106,-13.0473 -29.26033,-18.57164 -38.08901,-13.49824 -8.46562,4.86503 -11.01442,19.38301 -7.51482,37.57046 q 0.52233,2.7016 1.18139,5.37412 c -2.07853,0.58329 -4.08614,1.20554 -6.00705,1.86826 -17.18477,5.93035 -28.17753,15.27588 -28.20826,25.00478 -0.0317,10.04893 11.70466,20.16519 29.56591,26.33256 q 2.17248,0.74667 4.38006,1.38442 -0.72669,2.87371 -1.29199,5.78466 c -3.44769,17.84975 -0.84392,32.03959 7.56866,36.92778 8.68906,5.04695 23.31521,-0.0663 37.58116,-12.45691 q 1.69132,-1.46928 3.39322,-3.10789 2.12881,2.06697 4.37032,4.01289 c 13.74287,11.90148 27.33729,16.73287 35.77344,11.88497 8.71293,-5.00704 11.58687,-20.23296 7.97575,-38.78027 q -0.41307,-2.125 -0.95862,-4.33723 1.54063,-0.44935 3.01824,-0.93191 c 18.60754,-6.09951 30.7323,-16.01767 30.76447,-26.20078 0.0308,-9.76406 -11.25549,-19.24311 -28.74817,-25.3268 z"
       fill="#53c1de"
       id="path23"
       style="stroke-width:1.19171" />
    <path
       d="m 643.89372,365.50432 c -0.88713,0.29068 -1.79792,0.57126 -2.72589,0.84316 a 162.57177,162.57177 0 0 0 -8.14561,-20.56655 162.50247,162.50247 0 0 0 7.95513,-20.21646 c 1.6568,0.48601 3.26543,0.99699 4.81514,1.53649 14.9882,5.2118 24.11605,12.87787 24.0975,18.762 -0.0198,6.26803 -9.93011,14.37411 -25.99551,19.64136 z m -6.70079,13.17448 c 1.59655,8.20132 1.80491,15.61242 0.71168,21.40202 -0.98229,5.20224 -2.93502,8.6663 -5.34042,10.04866 -5.11921,2.9417 -16.03503,-0.93759 -27.78703,-11.1156 q -2.02129,-1.7501 -4.06553,-3.72992 a 162.77175,162.77175 0 0 0 13.64548,-17.21477 161.69422,161.69422 0 0 0 21.97067,-3.31542 q 0.48882,2.00359 0.86517,3.92504 z m -67.44227,30.74127 c -4.99775,1.74731 -8.97399,1.78497 -11.37278,0.39175 -5.10557,-2.9654 -7.19505,-14.36007 -4.24707,-29.6245 q 0.52579,-2.70589 1.20101,-5.37951 a 162.87918,162.87918 0 0 0 21.8402,3.23211 168.55091,168.55091 0 0 0 13.86378,17.23996 q -1.51396,1.45529 -3.09815,2.83472 c -6.30837,5.47963 -12.6246,9.36046 -18.18627,11.30548 z m -23.24839,-44.26218 c -7.89772,-2.72737 -14.41585,-6.25982 -18.87927,-10.10581 -4.01041,-3.45707 -6.03034,-6.88273 -6.02158,-9.6576 0.0186,-5.9035 8.84495,-13.4067 23.54201,-18.47875 q 2.76701,-0.95072 5.58614,-1.73827 a 166.11992,166.11992 0 0 0 7.83797,20.50244 168.64105,168.64105 0 0 0 -8.06659,20.74353 q -2.01459,-0.58353 -3.99868,-1.26554 z m 8.00883,-53.34137 c -2.99833,-15.58317 -0.93767,-27.32423 4.16428,-30.25593 5.43479,-3.12298 17.41494,1.39259 30.02173,12.65757 0.80573,0.72012 1.61493,1.474 2.42549,2.2537 a 165.98741,165.98741 0 0 0 -13.86591,17.04903 169.24787,169.24787 0 0 0 -21.64697,3.2942 q -0.61222,-2.48541 -1.09862,-4.99928 z m 69.88544,17.49086 q -2.36464,-4.11446 -4.90485,-8.12418 c 5.17166,0.66934 10.12521,1.55327 14.77605,2.63069 a 147.75345,147.75345 0 0 1 -5.23362,13.94548 q -2.23416,-4.27187 -4.63758,-8.45199 z m -28.43375,-27.87034 a 148.1317,148.1317 0 0 1 9.50522,11.54868 q -9.57496,-0.48279 -19.16357,-0.0649 c 3.16329,-4.14411 6.40242,-7.99303 9.65835,-11.48383 z m -28.79239,27.73692 q -2.3989,4.13091 -4.60318,8.37042 c -2.00199,-4.79046 -3.7129,-9.49962 -5.10788,-14.04633 4.62948,-1.02085 9.5655,-1.85129 14.70752,-2.47727 q -2.59361,4.01736 -4.99646,8.15318 z m 4.98771,41.40811 a 147.48338,147.48338 0 0 1 -14.9352,-2.44966 c 1.44616,-4.61811 3.22515,-9.41742 5.30071,-14.2976 q 2.186,4.25536 4.57029,8.40442 2.43231,4.23121 5.0642,8.34284 z m 23.71551,19.72881 c -3.27171,-3.55304 -6.53364,-7.48136 -9.71856,-11.70578 q 4.65577,0.19769 9.48577,0.21366 4.95774,0.0157 9.78843,-0.1865 a 147.29769,147.29769 0 0 1 -9.55564,11.67862 z m 33.17584,-36.5149 a 147.10089,147.10089 0 0 1 5.39991,14.28046 146.99928,146.99928 0 0 1 -15.13321,2.53047 q 2.58362,-4.06729 5.00388,-8.23495 2.45986,-4.23484 4.72942,-8.57598 z m -10.71884,5.09686 q -3.70441,6.38836 -7.81817,12.52584 c -4.81172,0.32852 -9.78365,0.49005 -14.84974,0.47405 -5.04527,-0.0159 -9.95301,-0.1886 -14.67871,-0.50993 q -4.17904,-6.14603 -7.88448,-12.59483 -3.68531,-6.4101 -6.87615,-13.08605 3.22229,-6.65296 6.93792,-13.04957 v 10e-4 q 3.71204,-6.39336 7.90131,-12.49112 c 4.82326,-0.34931 9.76796,-0.52456 14.76589,-0.50877 5.02016,0.0159 9.9701,0.2238 14.78963,0.60644 q 4.10573,6.11006 7.77283,12.4983 3.68545,6.40111 6.94885,13.03173 -3.26977,6.67396 -7.00843,13.10246 z m 14.53345,-77.30382 c 5.41928,3.14866 7.49122,15.78251 4.02755,32.33123 q -0.34051,1.61709 -0.73924,3.22106 a 165.93224,165.93224 0 0 0 -21.66859,-3.49349 162.71821,162.71821 0 0 0 -13.65167,-17.14888 q 1.82703,-1.75027 3.73932,-3.40818 c 12.00352,-10.37995 23.20424,-14.45779 28.29262,-11.50174 z"
       fill="#ffffff"
       id="path24"
       style="stroke-width:1.19171" />
    <path
       d="m 595.79141,331.15018 a 14.478964,14.478964 0 1 1 -14.52427,14.43276 14.478571,14.478571 0 0 1 14.52427,-14.43276"
       fill="#53c1de"
       id="path25"
       style="stroke-width:1.19171" />
  </g>
  <g
     opacity="0.7"
     id="g27"
     transform="translate(0,-135.0802)">
    <g
       opacity="0.1"
       id="g25">
      <polygon
         points="602.37,589.773 602.37,672.203 602.37,678.386 602.37,695.902 577.64,695.902 569.397,695.902 569.397,678.386 569.397,672.203 569.397,589.773 569.397,583.59 569.397,565.043 577.64,565.043 602.37,565.043 602.37,583.59 "
         fill="url(#bb60ebe1-81e2-422a-a970-aa43062904da-483)"
         id="polygon25"
         style="fill:url(#bb60ebe1-81e2-422a-a970-aa43062904da-483)" />
    </g>
    <g
       opacity="0.1"
       id="g26">
      <polygon
         points="567.337,589.773 567.337,672.203 567.337,678.386 567.337,695.902 542.607,695.902 534.364,695.902 534.364,678.386 534.364,672.203 534.364,589.773 534.364,583.59 534.364,565.043 542.607,565.043 567.337,565.043 567.337,583.59 "
         fill="url(#a1b2f907-b002-48c8-973d-a12b277f13d1-484)"
         id="polygon26"
         style="fill:url(#a1b2f907-b002-48c8-973d-a12b277f13d1-484)" />
    </g>
  </g>
  <rect
     x="56.363789"
     y="525.43604"
     width="86.635292"
     height="36.866081"
     rx="14.2973"
     fill="#6c63ff"
     id="rect27" />
  <g
     opacity="0.7"
     id="g31"
     transform="translate(0,-135.0802)">
    <g
       opacity="0.1"
       id="g28">
      <polygon
         points="218.832,590.773 218.832,673.203 218.832,679.386 218.832,696.902 243.562,696.902 251.805,696.902 251.805,679.386 251.805,673.203 251.805,590.773 251.805,584.59 251.805,566.043 243.562,566.043 218.832,566.043 218.832,584.59 "
         fill="url(#a8136d5f-4c26-4562-977f-ea29024932d1-485)"
         id="polygon27"
         style="fill:url(#a8136d5f-4c26-4562-977f-ea29024932d1-485)" />
    </g>
    <g
       opacity="0.1"
       id="g29">
      <polygon
         points="253.866,590.773 253.866,673.203 253.866,679.386 253.866,696.902 278.595,696.902 286.838,696.902 286.838,679.386 286.838,673.203 286.838,590.773 286.838,584.59 286.838,566.043 278.595,566.043 253.866,566.043 253.866,584.59 "
         fill="url(#eaaf4b84-3353-429f-a894-84d4b3cd89b7-486)"
         id="polygon28"
         style="fill:url(#eaaf4b84-3353-429f-a894-84d4b3cd89b7-486)" />
    </g>
    <g
       opacity="0.1"
       id="g30">
      <polygon
         points="325.251,585.838 323.658,579.865 323.658,579.865 318.878,561.944 287.019,570.441 291.799,588.362 291.799,588.362 293.068,593.119 314.635,673.982 314.635,673.982 316.228,679.955 316.228,679.955 320.742,696.88 352.601,688.383 325.251,585.838 "
         fill="url(#fa1ca12c-a5d3-4b88-b665-ae3e1db189da-487)"
         id="polygon29"
         style="fill:url(#fa1ca12c-a5d3-4b88-b665-ae3e1db189da-487)" />
    </g>
  </g>
  <rect
     x="222.20723"
     y="434.16125"
     width="31.308611"
     height="124.25606"
     fill="#535461"
     id="rect31" />
  <rect
     x="222.20723"
     y="451.77234"
     width="31.308611"
     height="5.8703699"
     fill="#6c63ff"
     id="rect32" />
  <rect
     x="222.20723"
     y="535.91425"
     width="31.308611"
     height="5.8703699"
     fill="#6c63ff"
     id="rect33" />
  <rect
     x="245.68869"
     y="434.16125"
     width="7.8271499"
     height="124.25606"
     opacity="0.1"
     id="rect34" />
  <rect
     x="255.47264"
     y="434.16125"
     width="31.308611"
     height="124.25606"
     fill="#535461"
     id="rect35" />
  <rect
     x="255.47264"
     y="451.77234"
     width="31.308611"
     height="5.8703699"
     fill="#6c63ff"
     id="rect36" />
  <rect
     x="255.47264"
     y="535.91425"
     width="31.308611"
     height="5.8703699"
     fill="#6c63ff"
     id="rect37" />
  <rect
     x="278.9541"
     y="434.16125"
     width="7.8271499"
     height="124.25606"
     opacity="0.1"
     id="rect38" />
  <rect
     x="164.2991"
     y="497.48123"
     width="31.308611"
     height="124.25606"
     transform="rotate(-14.93399)"
     fill="#535461"
     id="rect39" />
  <rect
     x="164.2991"
     y="515.09229"
     width="31.308611"
     height="5.8703699"
     transform="rotate(-14.93399)"
     fill="#6c63ff"
     id="rect40" />
  <rect
     x="164.29912"
     y="599.23419"
     width="31.308611"
     height="5.8703699"
     transform="rotate(-14.93399)"
     fill="#6c63ff"
     id="rect41" />
  <rect
     x="187.78055"
     y="497.4812"
     width="7.8271499"
     height="124.25606"
     transform="rotate(-14.93399)"
     opacity="0.1"
     id="rect42" />
  <rect
     x="-598.1723"
     y="-558.4173"
     width="31.308611"
     height="124.25606"
     transform="scale(-1)"
     fill="#535461"
     id="rect43" />
  <rect
     x="-598.1723"
     y="-457.6427"
     width="31.308611"
     height="5.8703699"
     transform="scale(-1)"
     fill="#6c63ff"
     id="rect44" />
  <rect
     x="-598.1723"
     y="-541.78461"
     width="31.308611"
     height="5.8703699"
     transform="scale(-1)"
     fill="#6c63ff"
     id="rect45" />
  <rect
     x="-574.69086"
     y="-558.4173"
     width="7.8271499"
     height="124.25606"
     transform="scale(-1)"
     opacity="0.1"
     id="rect46" />
  <rect
     x="-564.90692"
     y="-558.4173"
     width="31.308611"
     height="124.25606"
     transform="scale(-1)"
     fill="#535461"
     id="rect47" />
  <rect
     x="-564.90692"
     y="-457.6427"
     width="31.308611"
     height="5.8703699"
     transform="scale(-1)"
     fill="#6c63ff"
     id="rect48" />
  <rect
     x="-564.90692"
     y="-541.78461"
     width="31.308611"
     height="5.8703699"
     transform="scale(-1)"
     fill="#6c63ff"
     id="rect49" />
  <rect
     x="-541.42548"
     y="-558.4173"
     width="7.8271499"
     height="124.25606"
     transform="scale(-1)"
     opacity="0.1"
     id="rect50" />
  <path
     d="m 642.23877,499.08244 h 113.51162 c 0,0 22.39345,28.571 -12.355,71.04128 h -89.5738 c 0,0 -32.43189,-29.34314 -11.58282,-71.04128 z"
     fill="#6c63ff"
     id="path50" />
  <g
     opacity="0.1"
     id="g51"
     transform="translate(0,-135.0802)">
    <path
       d="M 962.16574,719.16264 H 848.65412 c -0.2586,0.51721 -0.50274,1.031 -0.74508,1.54438 H 958.3048 c 0,0 21.844,27.88077 -11.11731,69.4969 h 2.62324 c 34.74846,-42.47033 12.35501,-71.04128 12.35501,-71.04128 z"
       transform="translate(-206.41535,-85)"
       id="path51" />
  </g>
  <rect
     y="557.32001"
     width="787.16931"
     height="26.68371"
     fill="#e0e0e0"
     id="rect51"
     x="0" />
  <rect
     x="33.35463"
     y="584.00372"
     width="720.46002"
     height="10.91606"
     fill="#e0e0e0"
     id="rect52" />
  <rect
     x="33.35463"
     y="584.00372"
     width="720.46002"
     height="3.63869"
     opacity="0.1"
     id="rect53" />
</svg>
